<?xml version="1.0" encoding="UTF-8"?>
<!DOCTYPE svg PUBLIC "-//W3C//DTD SVG 1.1//EN" "http://www.w3.org/Graphics/SVG/1.1/DTD/svg11.dtd">
<svg xmlns="http://www.w3.org/2000/svg" version="1.1" width="980px" height="980px" style="shape-rendering:geometricPrecision; text-rendering:geometricPrecision; image-rendering:optimizeQuality; fill-rule:evenodd; clip-rule:evenodd" xmlns:xlink="http://www.w3.org/1999/xlink">
<g><path style="opacity:0.999" fill="#00a7f2" d="M 448.5,-0.5 C 475.833,-0.5 503.167,-0.5 530.5,-0.5C 697.361,18.3409 824.861,98.6742 913,240.5C 950.302,305.059 972.469,374.392 979.5,448.5C 979.5,475.833 979.5,503.167 979.5,530.5C 967.514,651.292 918.847,754.459 833.5,840C 832.906,840.464 832.239,840.631 831.5,840.5C 806.956,822.727 780.289,808.893 751.5,799C 703.946,782.792 654.946,771.292 604.5,764.5C 601.445,763.754 599.778,761.754 599.5,758.5C 600.474,740.756 600.474,723.089 599.5,705.5C 599.411,701.933 600.245,698.6 602,695.5C 620.706,681.128 637.039,664.461 651,645.5C 665.984,621.843 676.317,596.176 682,568.5C 682.833,567.667 683.667,566.833 684.5,566C 700.63,562.68 712.797,553.846 721,539.5C 731.188,522.604 738.021,504.437 741.5,485C 741.083,481.873 741.083,478.54 741.5,475C 741.504,467.517 740.004,460.35 737,453.5C 733.596,449.606 730.429,445.606 727.5,441.5C 727.667,389.832 727.5,338.166 727,286.5C 726.49,261.898 722.49,237.898 715,214.5C 702.611,188.111 683.444,168.278 657.5,155C 639.306,145.283 619.973,138.949 599.5,136C 535.167,135.333 470.833,135.333 406.5,136C 383.114,138.508 360.114,142.841 337.5,149C 316.457,153.925 299.29,164.758 286,181.5C 281,189.167 276,196.833 271,204.5C 264.34,217.487 259.673,231.153 257,245.5C 255.003,261.77 253.669,278.103 253,294.5C 252.5,342.499 252.333,390.499 252.5,438.5C 250.069,444.37 247.902,450.37 246,456.5C 241.292,496.555 253.459,530.388 282.5,558C 286.713,560.246 290.879,562.412 295,564.5C 296.587,563.273 297.921,563.606 299,565.5C 308.624,602.749 325.624,636.083 350,665.5C 360.356,675.853 371.356,685.52 383,694.5C 385.195,701.48 386.362,708.647 386.5,716C 385.452,729.678 385.452,743.511 386.5,757.5C 385.811,759.444 385.311,761.444 385,763.5C 384.292,764.381 383.458,765.047 382.5,765.5C 380.94,765.481 379.44,765.148 378,764.5C 330.359,772.041 283.859,782.875 238.5,797C 212.64,806.43 188.307,818.763 165.5,834C 160.973,837.699 156.639,841.532 152.5,845.5C 73.0879,770.711 23.9212,679.045 5,570.5C 2.98645,557.044 1.15312,543.71 -0.5,530.5C -0.5,503.167 -0.5,475.833 -0.5,448.5C 18.3409,281.639 98.6742,154.139 240.5,66C 305.059,28.6976 374.392,6.5309 448.5,-0.5 Z"/></g>
<g><path style="opacity:1" fill="#000000" d="M 727.5,441.5 C 721.675,441.079 716.675,442.913 712.5,447C 707.453,450.927 704.953,456.094 705,462.5C 704.667,461.5 704.333,460.5 704,459.5C 702.374,462.128 700.374,464.461 698,466.5C 696.243,471.037 694.91,475.704 694,480.5C 693.08,483.938 691.413,486.938 689,489.5C 689.308,508.716 681.808,523.883 666.5,535C 662.284,536.204 657.951,536.87 653.5,537C 618.152,537.872 582.818,537.539 547.5,536C 532.851,532.01 521.684,523.51 514,510.5C 513.206,507.529 512.539,504.529 512,501.5C 511.185,488.121 511.352,474.788 512.5,461.5C 507.687,458.297 502.353,456.963 496.5,457.5C 490.757,457.624 485.09,458.291 479.5,459.5C 479.927,476.548 479.427,493.548 478,510.5C 469,527.48 454.833,536.313 435.5,537C 399.481,537.916 363.481,537.583 327.5,536C 316.513,533.358 308.013,527.192 302,517.5C 299.247,511.075 297.247,504.409 296,497.5C 290.858,491.081 287.858,483.748 287,475.5C 285.108,474.87 283.441,473.87 282,472.5C 281.829,467.136 281.329,461.802 280.5,456.5C 273.638,449.804 267.305,442.638 261.5,435C 260.167,434.333 258.833,434.333 257.5,435C 256.154,436.669 254.487,437.836 252.5,438.5C 252.333,390.499 252.5,342.499 253,294.5C 253.669,278.103 255.003,261.77 257,245.5C 259.673,231.153 264.34,217.487 271,204.5C 276,196.833 281,189.167 286,181.5C 299.29,164.758 316.457,153.925 337.5,149C 360.114,142.841 383.114,138.508 406.5,136C 470.833,135.333 535.167,135.333 599.5,136C 619.973,138.949 639.306,145.283 657.5,155C 683.444,168.278 702.611,188.111 715,214.5C 722.49,237.898 726.49,261.898 727,286.5C 727.5,338.166 727.667,389.832 727.5,441.5 Z"/></g>
<g><path style="opacity:1" fill="#8d4f2b" d="M 318.5,333.5 C 353.159,348.774 389.159,359.941 426.5,367C 447.512,370.44 468.179,374.273 488.5,378.5C 489.293,378.069 490.127,377.735 491,377.5C 513.411,380.206 535.911,381.04 558.5,380C 559.458,378.853 559.125,377.853 557.5,377C 553.261,375.098 549.261,372.765 545.5,370C 541.613,366.113 537.779,362.279 534,358.5C 533.009,356.553 532.675,354.553 533,352.5C 535.287,355.462 538.12,357.629 541.5,359C 547.321,361.499 553.321,363.499 559.5,365C 596.334,366.523 631.334,375.19 664.5,391C 668.857,394.406 673.024,397.906 677,401.5C 677.772,401.355 678.439,401.022 679,400.5C 679.333,394.5 679.667,388.5 680,382.5C 680.923,381.241 681.757,379.908 682.5,378.5C 686.159,382.991 690.325,386.991 695,390.5C 693.565,399.73 692.732,409.063 692.5,418.5C 695.226,418.264 697.559,419.097 699.5,421C 696.382,431.488 690.715,433.155 682.5,426C 667.53,423.581 652.53,421.914 637.5,421C 606.167,420.333 574.833,420.333 543.5,421C 536.95,421.468 530.95,423.468 525.5,427C 521.121,432.272 517.121,437.772 513.5,443.5C 500.268,439.899 486.935,439.566 473.5,442.5C 470.507,434.002 464.841,427.836 456.5,424C 452.277,422.528 447.943,421.528 443.5,421C 403.128,419.868 362.795,420.534 322.5,423C 314.962,423.774 307.628,425.441 300.5,428C 295.167,428.333 289.833,428.667 284.5,429C 283.975,429.692 283.308,430.192 282.5,430.5C 281.201,427.566 281.868,425.066 284.5,423C 288.089,422.793 291.589,422.293 295,421.5C 295.333,401.5 295.667,381.5 296,361.5C 304.093,352.581 311.593,343.248 318.5,333.5 Z"/></g>
<g><path style="opacity:1" fill="#000000" d="M 389.5,389.5 C 406.676,385.726 420.843,390.392 432,403.5C 434.036,406.896 433.869,410.062 431.5,413C 416.536,412.125 401.536,411.625 386.5,411.5C 372.61,410.739 358.943,412.073 345.5,415.5C 344.833,415.167 344.167,414.833 343.5,414.5C 353.012,409.572 361.678,403.406 369.5,396C 376.179,393.505 382.846,391.338 389.5,389.5 Z"/></g>
<g><path style="opacity:1" fill="#010000" d="M 568.5,388.5 C 577.93,388.845 587.264,390.012 596.5,392C 600.443,393.223 604.11,394.89 607.5,397C 619.465,399.317 630.132,404.317 639.5,412C 638.57,412.991 637.404,413.491 636,413.5C 608.023,412.818 580.023,412.818 552,413.5C 550.237,413.025 548.57,412.358 547,411.5C 545.392,412.433 544.559,411.767 544.5,409.5C 548.853,398.136 556.853,391.136 568.5,388.5 Z"/></g>
<g><path style="opacity:1" fill="#8d4f2b" d="M 326.5,432.5 C 365.835,432.333 405.168,432.5 444.5,433C 451.721,433.543 457.555,436.71 462,442.5C 464.732,446.241 467.066,450.241 469,454.5C 469.667,467.167 469.667,479.833 469,492.5C 467.529,504.289 461.695,513.122 451.5,519C 445.202,522.21 438.535,524.21 431.5,525C 402.833,525.667 374.167,525.667 345.5,525C 333.746,524.531 324.246,519.697 317,510.5C 314.122,506.951 312.122,502.951 311,498.5C 310.333,480.167 310.333,461.833 311,443.5C 311.163,441.324 311.996,439.491 313.5,438C 317.707,435.66 322.041,433.826 326.5,432.5 Z"/></g>
<g><path style="opacity:1" fill="#8d4f2b" d="M 543.5,432.5 C 581.168,432.333 618.835,432.5 656.5,433C 661.694,433.131 666.694,434.131 671.5,436C 673.57,436.948 675.07,438.448 676,440.5C 677.966,458.828 677.966,477.161 676,495.5C 673.432,513.066 663.266,522.899 645.5,525C 618.5,525.667 591.5,525.667 564.5,525C 540.083,522.162 525.416,508.829 520.5,485C 521.321,474.91 521.821,464.744 522,454.5C 524.606,449.565 527.606,444.898 531,440.5C 534.55,436.687 538.716,434.02 543.5,432.5 Z"/></g>
<g><path style="opacity:1" fill="#8e502c" d="M 727.5,441.5 C 730.429,445.606 733.596,449.606 737,453.5C 740.004,460.35 741.504,467.517 741.5,475C 741.083,478.54 741.083,481.873 741.5,485C 738.021,504.437 731.188,522.604 721,539.5C 712.797,553.846 700.63,562.68 684.5,566C 683.667,566.833 682.833,567.667 682,568.5C 676.317,596.176 665.984,621.843 651,645.5C 637.039,664.461 620.706,681.128 602,695.5C 600.245,698.6 599.411,701.933 599.5,705.5C 600.474,723.089 600.474,740.756 599.5,758.5C 599.778,761.754 601.445,763.754 604.5,764.5C 607.914,774.912 611.248,785.412 614.5,796C 613.581,800.005 611.748,803.505 609,806.5C 596.126,822.704 581.959,837.537 566.5,851C 520.674,881.867 474.007,883.534 426.5,856C 406.667,841.5 389.5,824.333 375,804.5C 374.866,791.002 377.366,778.002 382.5,765.5C 383.458,765.047 384.292,764.381 385,763.5C 385.311,761.444 385.811,759.444 386.5,757.5C 385.452,743.511 385.452,729.678 386.5,716C 386.362,708.647 385.195,701.48 383,694.5C 371.356,685.52 360.356,675.853 350,665.5C 325.624,636.083 308.624,602.749 299,565.5C 297.921,563.606 296.587,563.273 295,564.5C 290.879,562.412 286.713,560.246 282.5,558C 253.459,530.388 241.292,496.555 246,456.5C 247.902,450.37 250.069,444.37 252.5,438.5C 254.487,437.836 256.154,436.669 257.5,435C 258.833,434.333 260.167,434.333 261.5,435C 267.305,442.638 273.638,449.804 280.5,456.5C 281.329,461.802 281.829,467.136 282,472.5C 283.441,473.87 285.108,474.87 287,475.5C 287.858,483.748 290.858,491.081 296,497.5C 297.247,504.409 299.247,511.075 302,517.5C 308.013,527.192 316.513,533.358 327.5,536C 363.481,537.583 399.481,537.916 435.5,537C 454.833,536.313 469,527.48 478,510.5C 479.427,493.548 479.927,476.548 479.5,459.5C 485.09,458.291 490.757,457.624 496.5,457.5C 502.353,456.963 507.687,458.297 512.5,461.5C 511.352,474.788 511.185,488.121 512,501.5C 512.539,504.529 513.206,507.529 514,510.5C 521.684,523.51 532.851,532.01 547.5,536C 582.818,537.539 618.152,537.872 653.5,537C 657.951,536.87 662.284,536.204 666.5,535C 681.808,523.883 689.308,508.716 689,489.5C 691.413,486.938 693.08,483.938 694,480.5C 694.91,475.704 696.243,471.037 698,466.5C 700.374,464.461 702.374,462.128 704,459.5C 704.333,460.5 704.667,461.5 705,462.5C 704.953,456.094 707.453,450.927 712.5,447C 716.675,442.913 721.675,441.079 727.5,441.5 Z"/></g>
<g><path style="opacity:1" fill="#000000" d="M 386.5,452.5 C 407.911,447.001 419.578,455.001 421.5,476.5C 423.017,493.634 415.351,503.3 398.5,505.5C 383.501,504 374.835,495.833 372.5,481C 372.625,474.825 374.292,469.158 377.5,464C 374.983,463.743 372.65,464.41 370.5,466C 362.5,470.667 354.5,475.333 346.5,480C 345.365,480.749 344.365,480.583 343.5,479.5C 355.108,465.841 369.441,456.841 386.5,452.5 Z"/></g>
<g><path style="opacity:1" fill="#010000" d="M 580.5,451.5 C 590.707,450.929 600.707,452.096 610.5,455C 621.664,460.751 631.998,467.751 641.5,476C 642.784,477.297 642.617,478.464 641,479.5C 630.253,472.241 618.753,466.574 606.5,462.5C 608.02,467.896 609.02,473.396 609.5,479C 607.629,501.111 595.963,509.111 574.5,503C 558.762,494.458 553.595,481.624 559,464.5C 564.081,456.561 571.248,452.228 580.5,451.5 Z"/></g>
<g><path style="opacity:1" fill="#fbfcfc" d="M 584.5,457.5 C 593.227,457.374 596.394,461.374 594,469.5C 586.74,475.467 581.907,473.8 579.5,464.5C 580.06,461.288 581.727,458.955 584.5,457.5 Z"/></g>
<g><path style="opacity:1" fill="#fefefe" d="M 403.5,458.5 C 413.472,459.769 415.139,464.269 408.5,472C 401.333,472.833 398.167,469.667 399,462.5C 400.25,460.807 401.75,459.473 403.5,458.5 Z"/></g>
<g><path style="opacity:1" fill="#fbfbfb" d="M 561.5,593.5 C 564.978,593.184 568.312,593.684 571.5,595C 559.778,620.079 540.278,634.246 513,637.5C 487.2,642.672 463.034,638.505 440.5,625C 429.695,617.384 422.029,607.384 417.5,595C 465.668,594.833 513.668,594.333 561.5,593.5 Z"/></g>
<g><path style="opacity:0.996" fill="#000000" d="M 382.5,765.5 C 377.366,778.002 374.866,791.002 375,804.5C 389.5,824.333 406.667,841.5 426.5,856C 474.007,883.534 520.674,881.867 566.5,851C 581.959,837.537 596.126,822.704 609,806.5C 611.748,803.505 613.581,800.005 614.5,796C 611.248,785.412 607.914,774.912 604.5,764.5C 654.946,771.292 703.946,782.792 751.5,799C 780.289,808.893 806.956,822.727 831.5,840.5C 744.853,923.973 641.187,970.306 520.5,979.5C 499.833,979.5 479.167,979.5 458.5,979.5C 340.58,970.228 238.58,925.562 152.5,845.5C 156.639,841.532 160.973,837.699 165.5,834C 188.307,818.763 212.64,806.43 238.5,797C 283.859,782.875 330.359,772.041 378,764.5C 379.44,765.148 380.94,765.481 382.5,765.5 Z"/></g>
</svg>
