<svg version="1.1" id="Layer_1" xmlns="http://www.w3.org/2000/svg" xmlns:xlink="http://www.w3.org/1999/xlink" x="0px" y="0px"
	 width="100%" viewBox="0 0 496 496" enable-background="new 0 0 496 496" xml:space="preserve">
<path fill="#000000" opacity="1.000000" stroke="none" 
	d="
M239.018677,85.130707 
	C239.137405,87.133270 238.565689,88.726837 237.103882,89.230026 
	C232.677002,90.753830 231.590775,94.580528 230.222580,98.334175 
	C226.930893,107.364891 222.432297,115.920860 219.990814,125.306587 
	C219.203796,128.332108 216.181168,129.911041 213.101562,130.447586 
	C208.978470,131.165970 208.123901,133.545059 208.133224,137.447723 
	C208.249023,185.927734 208.198715,234.408142 208.194351,282.888458 
	C208.193619,291.007263 208.200729,291.024902 200.276611,291.031372 
	C191.446884,291.038574 182.617050,291.029022 173.787430,290.989502 
	C167.307373,290.960480 167.039291,290.663696 167.039871,284.215729 
	C167.044327,234.735870 166.953140,185.255539 167.188278,135.776779 
	C167.214157,130.333115 165.913742,126.939651 160.651291,125.209641 
	C158.083466,124.365479 156.010056,122.608269 154.669678,120.170441 
	C153.770416,118.534866 153.144852,116.915047 155.969055,116.595383 
	C151.715012,107.863007 151.817245,98.271080 149.765503,89.171432 
	C148.961456,85.605377 149.020737,81.978676 145.189148,79.834259 
	C143.437668,78.854012 143.238388,76.688530 144.233383,74.918037 
	C145.203735,73.191376 146.912292,72.359161 148.920731,72.858162 
	C151.104446,73.400719 152.545715,74.922607 152.174713,77.191650 
	C151.785843,79.569885 151.237503,81.954071 153.274368,83.657082 
	C155.876694,85.832893 157.044373,90.579536 161.477249,89.522026 
	C164.112183,88.893433 167.010254,78.922348 166.123596,75.957939 
	C165.498764,73.868935 164.887772,71.478020 167.266968,70.179291 
	C169.042587,69.210022 171.160309,69.236755 172.787094,70.928001 
	C174.670898,72.886429 173.942566,74.620209 172.673630,76.714615 
	C169.696228,81.628853 172.870300,85.737633 174.397461,90.131844 
	C181.995865,87.231277 187.702042,78.083717 186.763016,71.060120 
	C186.420303,68.496651 186.580490,65.810005 189.120987,64.444847 
	C191.536591,63.146816 194.364624,62.953880 196.688339,64.702934 
	C199.241470,66.624664 198.687164,69.627296 198.047348,72.114998 
	C196.035187,79.938477 199.059479,88.939247 206.222992,94.120438 
	C207.863480,88.999733 213.673172,85.414772 209.918991,78.831963 
	C209.128418,77.445702 210.384888,75.667191 211.934097,74.680908 
	C213.490524,73.690025 214.994308,73.545692 216.551178,74.731796 
	C218.053238,75.876167 219.093033,77.860657 218.086685,79.054886 
	C212.825272,85.298599 217.794724,90.896858 218.635544,97.486839 
	C224.211441,94.236290 230.658051,92.883385 230.881973,84.939705 
	C230.930847,83.206085 232.410461,82.043312 234.271225,81.783485 
	C236.646881,81.451759 238.015884,82.730385 239.018677,85.130707 
z"/>
<path fill="#000000" opacity="1.000000" stroke="none" 
	d="
M350.737610,222.612671 
	C352.252380,223.817322 352.238037,225.181870 352.239624,226.510635 
	C352.254364,239.002563 352.261200,251.494522 352.234985,263.986420 
	C352.233307,264.785919 351.937927,265.584808 351.696869,266.798309 
	C346.489197,266.134186 342.229034,263.381622 337.737122,261.427673 
	C323.865662,255.393707 309.592407,250.121246 297.256531,241.033173 
	C277.692017,226.619568 266.852966,207.501465 268.060059,182.960983 
	C269.474701,154.201309 285.008453,134.716919 310.606171,122.780190 
	C322.043030,117.446960 334.178833,114.849213 346.798279,114.260490 
	C350.922974,114.068062 352.452667,115.426193 352.336456,119.604378 
	C352.105011,127.926071 352.101288,136.262772 352.322815,144.584778 
	C352.434814,148.792465 350.616821,150.158157 346.700287,150.184830 
	C338.176758,150.242828 330.556305,153.130127 323.097687,157.234650 
	C306.621429,166.301620 303.196747,193.693481 320.815430,206.938980 
	C329.848663,213.730026 340.246918,217.786026 350.737610,222.612671 
z"/>
<path fill="#000000" opacity="1.000000" stroke="none" 
	d="
M305.399628,376.812378 
	C287.994598,370.646393 272.881104,361.542755 259.855927,348.931335 
	C256.856659,346.027344 256.369171,343.954865 259.383911,340.681976 
	C264.682129,334.930115 269.607513,328.827667 274.553589,322.761627 
	C277.035339,319.717896 279.064758,319.211334 282.300262,322.115417 
	C300.846222,338.761505 322.744843,347.402863 347.590118,348.441772 
	C351.419434,348.601929 352.386261,350.106567 352.318085,353.599060 
	C352.152222,362.095825 352.109283,370.601532 352.318756,379.096222 
	C352.419525,383.182526 350.604523,384.365936 346.901367,384.165558 
	C332.896118,383.407745 319.095276,381.537903 305.399628,376.812378 
z"/>
<path fill="#000000" opacity="1.000000" stroke="none" 
	d="
M389.803925,377.006592 
	C385.545624,378.438080 381.720642,380.048035 377.724854,380.131134 
	C376.325439,378.107574 376.693878,376.221436 376.678406,374.425598 
	C376.629608,368.765167 377.058197,363.069519 376.569244,357.451233 
	C375.819366,348.834503 376.914124,342.087769 385.934296,337.492859 
	C392.745636,334.023102 396.037384,326.577942 397.519226,318.984344 
	C398.097076,316.023346 399.529510,315.038330 402.199127,315.036072 
	C413.187653,315.026855 424.176331,315.044159 435.164673,314.994934 
	C438.928955,314.978058 439.537598,316.876526 438.924530,320.166565 
	C433.961700,346.798492 417.973114,364.367218 393.840729,375.296173 
	C392.628204,375.845306 391.392731,376.343842 389.803925,377.006592 
z"/>
<path fill="#000000" opacity="1.000000" stroke="none" 
	d="
M162.785156,325.732880 
	C166.578110,314.999023 166.578110,314.997498 177.916290,314.999207 
	C185.911850,315.000397 193.908157,315.071533 201.902603,314.979034 
	C205.206024,314.940796 206.926224,315.873413 206.301834,319.603851 
	C201.707977,347.050018 186.501999,372.299713 155.913406,380.473755 
	C154.150208,380.944916 152.438263,381.671143 150.356659,380.953369 
	C149.126129,377.138367 149.915161,373.133881 149.771591,369.202881 
	C149.637909,365.543060 149.903763,361.865723 149.705048,358.211792 
	C149.249146,349.828735 149.064224,341.827057 157.046570,335.984833 
	C160.004013,333.820282 161.300446,329.703217 162.785156,325.732880 
z"/>
<path fill="#000000" opacity="1.000000" stroke="none" 
	d="
M72.429337,360.548462 
	C67.920593,355.380981 64.107399,350.170502 60.772068,344.557770 
	C58.764118,341.178772 58.789146,339.058441 62.360977,336.835602 
	C68.715546,332.881073 74.903603,328.644135 81.010468,324.312683 
	C84.081718,322.134338 85.873306,322.792297 87.887428,325.777527 
	C94.457268,335.514862 102.585808,343.406250 114.316589,346.677399 
	C114.957466,346.856079 115.574776,347.124359 116.219887,347.282104 
	C125.348267,349.514557 125.350044,349.511658 125.348160,358.853607 
	C125.346809,365.512939 125.193779,372.176758 125.395264,378.829895 
	C125.513588,382.736969 124.420837,384.023682 120.214737,383.559479 
	C101.657974,381.511505 85.578659,374.540924 72.429337,360.548462 
z"/>
<path fill="#000000" opacity="1.000000" stroke="none" 
	d="
M376.660889,269.920410 
	C376.661102,257.982574 376.661102,246.533524 376.661102,233.831299 
	C391.837830,239.682510 405.704590,245.727325 417.426025,255.818741 
	C427.906891,264.842041 435.208496,275.852020 437.875519,289.511353 
	C436.108917,291.565460 433.982330,291.006592 432.068268,291.013824 
	C420.580750,291.057343 409.092285,290.952972 397.605621,291.057434 
	C394.074127,291.089539 391.169983,290.377289 388.766663,287.509857 
	C387.301697,285.761963 385.388672,284.083038 383.323334,283.203094 
	C377.437225,280.695435 375.749969,276.302368 376.660889,269.920410 
z"/>
<path fill="#000000" opacity="1.000000" stroke="none" 
	d="
M401.770447,125.088509 
	C411.569061,129.577728 419.931854,135.527328 427.797943,142.287796 
	C430.927734,144.977707 431.550903,147.102768 428.530365,150.475479 
	C423.210876,156.415268 418.175049,162.632339 413.358948,168.989777 
	C410.996094,172.108810 409.054474,171.906464 406.375763,169.715775 
	C398.472900,163.252655 389.814117,158.072678 380.187225,154.561142 
	C378.660889,154.004379 376.817017,153.442993 376.807587,151.364273 
	C376.756500,140.100418 376.783356,128.836212 376.783356,117.082314 
	C385.962952,118.205376 393.746002,121.410393 401.770447,125.088509 
z"/>
</svg>